<?xml version="1.0" encoding="UTF-8"?>
<svg width="268px" height="58px" viewBox="0 0 268 58" version="1.1" xmlns="http://www.w3.org/2000/svg" xmlns:xlink="http://www.w3.org/1999/xlink">
    <title>Logo/Logo LM Studio</title>
    <g id="Logo/Logo-LM-Studio" stroke="none" stroke-width="1" fill="none" fill-rule="evenodd">
        <g id="Group">
            <line x1="113.36" y1="3.65" x2="112.64" y2="6.17" id="Path" fill="#000000" fill-rule="nonzero"></line>
            <polygon id="Path" fill="#000000" points="55.25 21.47 69.43 21.47 69.43 16.68 60.57 16.68 60.57 0.46 55.25 0.46"></polygon>
            <polyline id="Path" fill="#000000" points="77.35 4.75 77.35 8.33 84.79 8.33 84.79 12.62 77.35 12.62 77.35 17.18 86.5 17.18 86.5 21.47 72.03 21.47 72.03 0.46 86.56 0.46 86.56 4.75 77.35 4.75"></polyline>
            <path d="M107.21,21.47 L102.12,12.3 L102.12,12.3 C104.678856,11.3673582 106.354311,8.90250713 106.28,6.18 C106.22035,4.59697039 105.530835,3.10335026 104.364708,2.03111457 C103.198581,0.958878885 101.652464,0.396869594 100.07,0.47 L89.42,0.47 L89.42,21.47 L94.74,21.47 L94.74,4.47 L98.17,4.47 C98.891424,4.4566166 99.5886046,4.73042907 100.108107,5.23117714 C100.62761,5.7319252 100.92686,6.41857155 100.94,7.14 C100.92686,7.86408046 100.626556,8.55327008 100.105178,9.05589342 C99.5837999,9.55851676 98.884076,9.83338295 98.16,9.82 L95,9.82 L101.46,21.48 L107.21,21.47 Z" id="Path" fill="#000000"></path>
            <path d="M117.64,5.32907052e-14 C124.21,5.32907052e-14 128.21,4.66 128.190075,10.81 C128.17,16.96 124.12,21.63 117.56,21.63 C111,21.63 107,17 107,10.81 C107,4.62 111.07,5.32907052e-14 117.64,5.32907052e-14 Z M117.64,4.17 C114.31,4.17 112.83,6.75 112.819949,10.81 C112.81,14.87 114.26,17.45 117.59,17.45 C120.92,17.45 122.4,14.87 122.42,10.81 C122.44,6.75 121,4.17 117.62,4.17 L117.64,4.17 Z" id="Shape" fill="#000000"></path>
            <polygon id="Path" fill="#000000" points="138.36 13.28 144.97 0.46 139.11 0.46 135.74 8.29 135.7 8.35 135.69 8.35 135.64 8.29 132.27 0.46 126.41 0.46 133.03 13.28 133.03 21.47 138.36 21.47 138.36 13.28"></polygon>
            <polygon id="Path" fill="#000000" points="168.07 21.87 172.38 9.78 172.38 21.87 177.26 21.87 177.26 0.87 170.4 0.87 166.51 12.6 166.51 12.6 166.51 12.6 162.62 0.87 155.76 0.87 155.76 21.87 160.64 21.87 160.64 9.78 164.95 21.87"></polygon>
            <polygon id="Path" fill="#000000" points="255.08 0.87 262.89 15.33 262.89 15.35 262.89 0.87 267.77 0.87 267.77 21.87 261.32 21.87 252.68 7.5 252.68 7.49 252.68 21.87 247.8 21.87 247.8 0.87"></polygon>
            <polygon id="Path" fill="#000000" points="220.58 21.87 234.76 21.87 234.76 17.09 225.9 17.09 225.9 0.87 220.58 0.87"></polygon>
            <rect id="Rectangle" fill="#000000" x="237.62" y="0.87" width="5.32" height="21"></rect>
            <path d="M218.3,21.87 L213.21,12.7 L213.21,12.7 C215.770807,11.7681771 217.449706,9.30418215 217.38,6.58 C217.223301,3.29302618 214.448355,0.74560774 211.16,0.87 L200.51,0.87 L200.51,21.87 L205.83,21.87 L205.83,4.87 L209.26,4.87 C210.750677,4.85878771 211.972639,6.04953149 212,7.54 C211.961786,9.04549722 210.715722,10.2379663 209.21,10.21 L206.08,10.21 L212.55,21.87 L218.3,21.87 Z" id="Path" fill="#000000"></path>
            <polyline id="Path" fill="#000000" points="186.44 5.15 186.44 8.73 193.88 8.73 193.88 13.02 186.44 13.02 186.44 17.59 195.59 17.59 195.59 21.87 181.12 21.87 181.12 0.87 195.65 0.87 195.65 5.15 186.44 5.15"></polyline>
            <path d="M55.48,51.68 L60.09,50.25 C61.0662492,52.3420574 63.2262893,53.6206105 65.53,53.47 C67.78,53.47 69.53,52.26 69.53,50.21 C69.53,45.21 55.98,46.91 55.98,37.59 C55.98,32.7 59.98,29.94 64.98,29.94 C69.98,29.94 73.21,32.19 74.5,36 L69.64,37.4 C68.9479049,35.5490872 67.1552609,34.3432729 65.18,34.4 C62.97,34.4 61.38,35.6 61.38,37.5 C61.38,42.71 75,41 75,49.93 C75,54.83 71.2,57.93 65.57,57.93 C60.48,57.93 56.87,55.56 55.48,51.68 Z" id="Path" fill="#78BE20"></path>
            <path d="M80.83,51.33 L80.83,41 L77.14,41 L77.14,36.58 L80.83,36.58 L80.83,30.87 L85.76,30 L85.76,36.6 L91.15,36.6 L91.15,41 L85.76,41 L85.76,50.31 C85.76,52.37 86.69,53.15 88.28,53.15 C89.2803478,53.1237589 90.2616812,52.8707322 91.15,52.41 L91.54,57.11 C90.2383968,57.6184511 88.8571209,57.892675 87.46,57.920035 C83.54,57.93 80.83,55.8 80.83,51.33 Z" id="Path" fill="#78BE20"></path>
            <path d="M95,50.83 L95,36.58 L99.93,36.58 L99.93,49.93 C99.8365512,50.8778204 100.158428,51.8196272 100.812436,52.5119929 C101.466443,53.2043587 102.388397,53.5793342 103.34,53.54 C104.463146,53.5239528 105.529724,53.0444464 106.287194,52.215017 C107.044663,51.3855877 107.42567,50.2799884 107.34,49.16 L107.34,36.58 L112.27,36.58 L112.27,51.06 C112.278107,53.2110592 112.5638,55.3520774 113.12,57.43 L108.27,57.43 C107.959216,56.6774052 107.789721,55.8740005 107.77,55.06 C106.41233,56.8795957 104.270235,57.9450746 102,57.93 C100.110613,57.9815076 98.2845797,57.2466181 96.9575972,55.9006788 C95.6306148,54.5547395 94.9216991,52.7184661 95,50.83 L95,50.83 Z" id="Path" fill="#78BE20"></path>
            <path d="M116.54,46.71 C116.54,39.92 120,36.08 124.69,36.08 C126.888586,35.9474959 128.991525,36.9951556 130.21,38.83 L130.21,28.31 L135.14,28.31 L135.14,51.41 C135.177657,53.4320543 135.435852,55.443962 135.91,57.41 L131.06,57.41 C130.738298,56.5526668 130.56908,55.6456582 130.56,54.73 C129.393444,56.8465868 127.100138,58.0889567 124.69,57.91 C119.49,57.93 116.54,53.54 116.54,46.71 Z M130.21,47.02 C130.21,42.68 128.69,40.38 125.94,40.38 C123.19,40.38 121.59,42.68 121.59,47.02 C121.59,51.36 123.14,53.62 125.94,53.62 C128.74,53.62 130.21,51.33 130.21,47 L130.21,47.02 Z" id="Shape" fill="#78BE20"></path>
            <path d="M140.46,30.68 C140.451914,29.5236825 141.143312,28.4770898 142.210083,28.0308426 C143.276853,27.5845955 144.507525,27.8271554 145.325185,28.6448154 C146.142845,29.4624753 146.385404,30.6931471 145.939157,31.7599175 C145.49291,32.8266878 144.446317,33.5180864 143.29,33.51 C142.530246,33.5414002 141.792035,33.2533365 141.254349,32.7156505 C140.716663,32.1779645 140.4286,31.4397542 140.46,30.68 L140.46,30.68 Z M140.84,36.58 L145.77,36.58 L145.77,57.43 L140.84,57.43 L140.84,36.58 Z" id="Shape" fill="#78BE20"></path>
            <path d="M149.93,47 C149.93,39.71 153.77,36.06 159.28,36.06 C164.79,36.06 168.64,39.71 168.64,47 C168.64,54.29 164.84,57.91 159.28,57.91 C153.72,57.91 149.93,54.24 149.93,47 Z M163.59,47 C163.59,42.66 162.08,40.36 159.28,40.36 C156.48,40.36 155,42.68 155,47 C155,51.32 156.51,53.6 159.3,53.6 C162.09,53.6 163.59,51.33 163.59,47 Z" id="Shape" fill="#78BE20"></path>
            <polygon id="Path" fill="#78BE20" points="41 20.93 0 20.93 20.46 0.47"></polygon>
            <rect id="Rectangle" fill="#000000" x="2" y="49.93" width="37" height="7"></rect>
        </g>
    </g>
</svg>